<?xml version="1.0" encoding="UTF-8" standalone="no"?>
<!-- Created with Inkscape (http://www.inkscape.org/) -->

<svg
   xmlns:dc="http://purl.org/dc/elements/1.1/"
   xmlns:cc="http://creativecommons.org/ns#"
   xmlns:rdf="http://www.w3.org/1999/02/22-rdf-syntax-ns#"
   xmlns:svg="http://www.w3.org/2000/svg"
   xmlns="http://www.w3.org/2000/svg"
   xmlns:sodipodi="http://sodipodi.sourceforge.net/DTD/sodipodi-0.dtd"
   xmlns:inkscape="http://www.inkscape.org/namespaces/inkscape"
   width="256"
   height="256"
   viewBox="0 0 67.733332 67.733335"
   version="1.1"
   id="svg4558"
   inkscape:version="0.92.2 (unknown)"
   sodipodi:docname="icon_cpu_easy.svg">
  <defs
     id="defs4552" />
  <sodipodi:namedview
     id="base"
     pagecolor="#ffffff"
     bordercolor="#666666"
     borderopacity="1.0"
     inkscape:pageopacity="0.0"
     inkscape:pageshadow="2"
     inkscape:zoom="2.8"
     inkscape:cx="183.92866"
     inkscape:cy="126.5497"
     inkscape:document-units="mm"
     inkscape:current-layer="layer1"
     showgrid="false"
     units="px"
     inkscape:snap-nodes="false"
     inkscape:window-width="1920"
     inkscape:window-height="1056"
     inkscape:window-x="0"
     inkscape:window-y="0"
     inkscape:window-maximized="1" />
  <metadata
     id="metadata4555">
    <rdf:RDF>
      <cc:Work
         rdf:about="">
        <dc:format>image/svg+xml</dc:format>
        <dc:type
           rdf:resource="http://purl.org/dc/dcmitype/StillImage" />
        <dc:title></dc:title>
      </cc:Work>
    </rdf:RDF>
  </metadata>
  <g
     inkscape:label="Layer 1"
     inkscape:groupmode="layer"
     id="layer1"
     transform="translate(0,-229.26663)">
    <rect
       style="fill:#ffff68;fill-opacity:1;stroke-width:0.26458332"
       id="rect3699"
       width="67.941216"
       height="67.752235"
       x="-0.04724456"
       y="229.29497" />
    <rect
       y="229.95642"
       x="0.61421251"
       height="66.334824"
       width="66.519852"
       id="rect4506"
       style="fill:#000000;fill-opacity:1;stroke-width:0.2590481" />
    <rect
       y="241.40506"
       x="12.709452"
       height="42.223991"
       width="42.341766"
       id="rect4599"
       style="fill:#ffff68;fill-opacity:1;stroke-width:0.16489142" />
    <rect
       style="fill:#000000;fill-opacity:1;stroke-width:0.16010758"
       id="rect4601"
       width="41.113342"
       height="40.998985"
       x="13.37091"
       y="242.0631" />
    <rect
       y="246.38354"
       x="18.190105"
       height="31.575865"
       width="31.663937"
       id="rect4603"
       style="fill:#ffff68;fill-opacity:1;stroke-width:0.12330879" />
    <rect
       style="fill:#000000;fill-opacity:1;stroke-width:0.11558104"
       id="rect5148"
       width="29.679562"
       height="29.59701"
       x="19.040552"
       y="247.32297" />
    <path
       style="fill:#ffff68;fill-opacity:1;stroke-width:0.20607047"
       d="m 31.149885,234.04874 c 0,0 -0.113888,-0.47443 0.722032,-1.38751 1.298891,-0.66873 1.533743,-0.50385 1.533743,-0.50385 0,0 0.55287,-0.14778 1.504533,0.45665 0.540133,0.32151 0.802682,1.43471 0.802682,1.43471 v 5.59334 h -4.56299 z"
       id="rect5150"
       inkscape:connector-curvature="0"
       sodipodi:nodetypes="cccccccc" />
    <path
       sodipodi:nodetypes="cccccccc"
       inkscape:connector-curvature="0"
       id="path5153"
       d="m 38.520421,234.04874 c 0,0 -0.113888,-0.47443 0.722032,-1.38751 1.298891,-0.66873 1.533743,-0.50385 1.533743,-0.50385 0,0 0.55287,-0.14778 1.504533,0.45665 0.540133,0.32151 0.802682,1.43471 0.802682,1.43471 v 5.59334 h -4.56299 z"
       style="fill:#ffff68;fill-opacity:1;stroke-width:0.20607047" />
    <path
       style="fill:#ffff68;fill-opacity:1;stroke-width:0.20607047"
       d="m 46.268933,233.95424 c 0,0 -0.113888,-0.47443 0.722032,-1.38751 1.298891,-0.66873 1.533743,-0.50385 1.533743,-0.50385 0,0 0.55287,-0.14778 1.504533,0.45665 0.540133,0.32151 0.802682,1.43471 0.802682,1.43471 v 5.59334 h -4.56299 z"
       id="path5155"
       inkscape:connector-curvature="0"
       sodipodi:nodetypes="cccccccc" />
    <path
       sodipodi:nodetypes="cccccccc"
       inkscape:connector-curvature="0"
       id="path5157"
       d="m 23.684855,234.04874 c 0,0 -0.113888,-0.47443 0.722032,-1.38751 1.298891,-0.66873 1.533743,-0.50385 1.533743,-0.50385 0,0 0.55287,-0.14778 1.504533,0.45665 0.540133,0.32151 0.802682,1.43471 0.802682,1.43471 v 5.59334 h -4.56299 z"
       style="fill:#ffff68;fill-opacity:1;stroke-width:0.20607047" />
    <path
       style="fill:#ffff68;fill-opacity:1;stroke-width:0.20607047"
       d="m 16.31432,234.04874 c 0,0 -0.113888,-0.47443 0.722032,-1.38751 1.298891,-0.66873 1.533743,-0.50385 1.533743,-0.50385 0,0 0.55287,-0.14778 1.504533,0.45665 0.540133,0.32151 0.802682,1.43471 0.802682,1.43471 v 5.59334 h -4.56299 z"
       id="path5159"
       inkscape:connector-curvature="0"
       sodipodi:nodetypes="cccccccc" />
    <path
       sodipodi:nodetypes="cccccccc"
       inkscape:connector-curvature="0"
       id="path5161"
       d="m 36.352633,291.0491 c 0,0 0.109608,0.47545 -0.734507,1.38095 -1.304865,0.657 -1.538221,0.49001 -1.538221,0.49001 0,0 -0.55418,0.1428 -1.500357,-0.47019 -0.537214,-0.32636 -0.78972,-1.44188 -0.78972,-1.44188 l 0.05041,-5.59312 4.562805,0.0411 z"
       style="fill:#ffff68;fill-opacity:1;stroke-width:0.20607047" />
    <path
       style="fill:#ffff68;fill-opacity:1;stroke-width:0.20607047"
       d="m 28.982396,290.98268 c 0,0 0.109608,0.47544 -0.734507,1.38095 -1.304865,0.657 -1.538221,0.49001 -1.538221,0.49001 0,0 -0.55418,0.14279 -1.500357,-0.47019 -0.537213,-0.32637 -0.789719,-1.44189 -0.789719,-1.44189 l 0.05041,-5.59311 4.562804,0.0411 z"
       id="path5163"
       inkscape:connector-curvature="0"
       sodipodi:nodetypes="cccccccc" />
    <path
       sodipodi:nodetypes="cccccccc"
       inkscape:connector-curvature="0"
       id="path5165"
       d="m 21.233348,291.00735 c 0,0 0.109607,0.47544 -0.734507,1.38094 -1.304866,0.657 -1.538223,0.49002 -1.538223,0.49002 0,0 -0.554178,0.14279 -1.500356,-0.47019 -0.537213,-0.32637 -0.789719,-1.44189 -0.789719,-1.44189 l 0.05041,-5.59311 4.562804,0.0411 z"
       style="fill:#ffff68;fill-opacity:1;stroke-width:0.20607047" />
    <path
       style="fill:#ffff68;fill-opacity:1;stroke-width:0.20607047"
       d="m 43.817359,291.11638 c 0,0 0.109609,0.47544 -0.734507,1.38095 -1.304864,0.657 -1.538221,0.49001 -1.538221,0.49001 0,0 -0.554179,0.14279 -1.500356,-0.4702 -0.537214,-0.32636 -0.78972,-1.44188 -0.78972,-1.44188 l 0.05041,-5.59312 4.562805,0.0411 z"
       id="path5167"
       inkscape:connector-curvature="0"
       sodipodi:nodetypes="cccccccc" />
    <path
       sodipodi:nodetypes="cccccccc"
       inkscape:connector-curvature="0"
       id="path5169"
       d="m 51.187595,291.18281 c 0,0 0.109608,0.47544 -0.734507,1.38094 -1.304864,0.657 -1.538221,0.49001 -1.538221,0.49001 0,0 -0.55418,0.1428 -1.500357,-0.47019 -0.537214,-0.32636 -0.78972,-1.44188 -0.78972,-1.44188 l 0.05041,-5.59312 4.562805,0.0411 z"
       style="fill:#ffff68;fill-opacity:1;stroke-width:0.20607047" />
    <path
       style="fill:#ffff68;fill-opacity:1;stroke-width:0.20607047"
       d="m 62.993789,259.58783 c 0,0 0.474837,-0.11224 1.384988,0.72686 0.6642,1.30122 0.498503,1.53549 0.498503,1.53549 0,0 0.14586,0.55338 -0.461892,1.50293 -0.323387,0.53901 -1.437494,0.79768 -1.437494,0.79768 l -5.593313,-0.0195 0.01589,-4.56297 z"
       id="path5171"
       inkscape:connector-curvature="0"
       sodipodi:nodetypes="cccccccc" />
    <path
       sodipodi:nodetypes="cccccccc"
       inkscape:connector-curvature="0"
       id="path5173"
       d="m 62.968098,266.95832 c 0,0 0.474827,-0.11224 1.384988,0.72686 0.6642,1.30122 0.498502,1.53549 0.498502,1.53549 0,0 0.145851,0.55338 -0.461891,1.50293 -0.323397,0.53901 -1.437505,0.79768 -1.437505,0.79768 l -5.593303,-0.0195 0.01589,-4.56296 z"
       style="fill:#ffff68;fill-opacity:1;stroke-width:0.20607047" />
    <path
       style="fill:#ffff68;fill-opacity:1;stroke-width:0.20607047"
       d="m 63.035589,274.70711 c 0,0 0.474827,-0.11223 1.384977,0.72687 0.664201,1.30121 0.498513,1.53549 0.498513,1.53549 0,0 0.14585,0.55338 -0.461892,1.50293 -0.323396,0.53901 -1.437504,0.79767 -1.437504,0.79767 l -5.593303,-0.0195 0.01589,-4.56296 z"
       id="path5175"
       inkscape:connector-curvature="0"
       sodipodi:nodetypes="cccccccc" />
    <path
       sodipodi:nodetypes="cccccccc"
       inkscape:connector-curvature="0"
       id="path5177"
       d="m 63.019818,252.12284 c 0,0 0.474827,-0.11223 1.384988,0.72687 0.664201,1.30121 0.498503,1.53549 0.498503,1.53549 0,0 0.14585,0.55338 -0.461902,1.50293 -0.323387,0.53901 -1.437494,0.79767 -1.437494,0.79767 l -5.593313,-0.0195 0.01589,-4.56296 z"
       style="fill:#ffff68;fill-opacity:1;stroke-width:0.20607047" />
    <path
       style="fill:#ffff68;fill-opacity:1;stroke-width:0.20607047"
       d="m 63.045519,244.75235 c 0,0 0.474827,-0.11223 1.384978,0.72687 0.664201,1.30121 0.498503,1.53549 0.498503,1.53549 0,0 0.14586,0.55338 -0.461892,1.50293 -0.323386,0.53901 -1.437494,0.79767 -1.437494,0.79767 l -5.593313,-0.0195 0.01588,-4.56296 z"
       id="path5179"
       inkscape:connector-curvature="0"
       sodipodi:nodetypes="cccccccc" />
    <path
       sodipodi:nodetypes="cccccccc"
       inkscape:connector-curvature="0"
       id="path5181"
       d="m 4.7946958,264.7026 c 0,0 -0.4745895,0.11329 -1.3865805,-0.72381 -0.6670545,-1.29976 -0.5018721,-1.5344 -0.5018721,-1.5344 0,0 -0.1470742,-0.55305 0.4585921,-1.50394 0.3222035,-0.53971 1.4357401,-0.80083 1.4357401,-0.80083 l 5.5933426,0.007 -0.0059,4.563 z"
       style="fill:#ffff68;fill-opacity:1;stroke-width:0.20607047" />
    <path
       style="fill:#ffff68;fill-opacity:1;stroke-width:0.20607047"
       d="m 4.804209,257.33208 c 0,0 -0.4745795,0.11328 -1.3865805,-0.72382 -0.6670545,-1.29976 -0.5018711,-1.53439 -0.5018711,-1.53439 0,0 -0.1470653,-0.55306 0.458591,-1.50394 0.3222135,-0.53972 1.4357511,-0.80084 1.4357511,-0.80084 l 5.5933325,0.007 -0.0059,4.56299 z"
       id="path5183"
       inkscape:connector-curvature="0"
       sodipodi:nodetypes="cccccccc" />
    <path
       sodipodi:nodetypes="cccccccc"
       inkscape:connector-curvature="0"
       id="path5185"
       d="m 4.71971,249.58345 c 0,0 -0.4745795,0.11327 -1.3865695,-0.72383 -0.6670555,-1.29974 -0.5018821,-1.53439 -0.5018821,-1.53439 0,0 -0.1470643,-0.55306 0.458592,-1.50394 0.3222125,-0.53972 1.4357501,-0.80082 1.4357501,-0.80082 l 5.5933325,0.007 -0.0059,4.56299 z"
       style="fill:#ffff68;fill-opacity:1;stroke-width:0.20607047" />
    <path
       style="fill:#ffff68;fill-opacity:1;stroke-width:0.20607047"
       d="m 4.7850521,272.16763 c 0,0 -0.4745795,0.11328 -1.3865805,-0.72382 -0.6670555,-1.29975 -0.5018721,-1.5344 -0.5018721,-1.5344 0,0 -0.1470643,-0.55306 0.458602,-1.50394 0.3222036,-0.53972 1.4357401,-0.80082 1.4357401,-0.80082 l 5.5933424,0.007 -0.0059,4.56299 z"
       id="path5187"
       inkscape:connector-curvature="0"
       sodipodi:nodetypes="cccccccc" />
    <path
       sodipodi:nodetypes="cccccccc"
       inkscape:connector-curvature="0"
       id="path5189"
       d="m 4.775529,279.53816 c 0,0 -0.4745795,0.11327 -1.3865705,-0.72383 -0.6670555,-1.29975 -0.5018721,-1.53439 -0.5018721,-1.53439 0,0 -0.1470743,-0.55306 0.458592,-1.50394 0.3222025,-0.53972 1.4357401,-0.80082 1.4357401,-0.80082 l 5.5933425,0.007 -0.0059,4.56299 z"
       style="fill:#ffff68;fill-opacity:1;stroke-width:0.20607047" />
    <circle
       style="fill:#ffff68;fill-opacity:1;stroke-width:0.33020005"
       id="path4526"
       cx="28.249557"
       cy="255.86745"
       r="2.3585718" />
    <circle
       r="2.3585718"
       cy="255.74954"
       cx="38.98106"
       id="circle4528"
       style="fill:#ffff68;fill-opacity:1;stroke-width:0.33020005" />
    <path
       style="fill:#ffff68;fill-opacity:1;stroke-width:0.33020005"
       d="m 42.047209,266.06829 c -9e-6,0.42333 -4.792513,2.06374 -8.667752,2.06374 -3.875239,0 -7.724316,-1.52247 -7.724323,-1.94582 -5.5e-5,-0.42335 3.849039,0.41274 7.724323,0.41274 3.875284,0 8.667807,-0.95402 8.667752,-0.53066 z"
       id="path4530"
       inkscape:connector-curvature="0"
       sodipodi:nodetypes="cscsc" />
  </g>
</svg>
