<?xml version="1.0" encoding="UTF-8" standalone="no"?>
<!-- Created with Inkscape (http://www.inkscape.org/) -->

<svg
   xmlns:dc="http://purl.org/dc/elements/1.1/"
   xmlns:cc="http://creativecommons.org/ns#"
   xmlns:rdf="http://www.w3.org/1999/02/22-rdf-syntax-ns#"
   xmlns:svg="http://www.w3.org/2000/svg"
   xmlns="http://www.w3.org/2000/svg"
   xmlns:sodipodi="http://sodipodi.sourceforge.net/DTD/sodipodi-0.dtd"
   xmlns:inkscape="http://www.inkscape.org/namespaces/inkscape"
   width="256"
   height="256"
   viewBox="0 0 67.733332 67.733335"
   version="1.1"
   id="svg5272"
   inkscape:version="0.92.2 (unknown)"
   sodipodi:docname="icon_cpu_hard.svg">
  <defs
     id="defs5266" />
  <sodipodi:namedview
     id="base"
     pagecolor="#ffffff"
     bordercolor="#666666"
     borderopacity="1.0"
     inkscape:pageopacity="0.0"
     inkscape:pageshadow="2"
     inkscape:zoom="2.8"
     inkscape:cx="141.58712"
     inkscape:cy="127.06174"
     inkscape:document-units="mm"
     inkscape:current-layer="layer1"
     showgrid="false"
     units="px"
     inkscape:snap-nodes="false"
     inkscape:window-width="1920"
     inkscape:window-height="1056"
     inkscape:window-x="0"
     inkscape:window-y="0"
     inkscape:window-maximized="1" />
  <metadata
     id="metadata5269">
    <rdf:RDF>
      <cc:Work
         rdf:about="">
        <dc:format>image/svg+xml</dc:format>
        <dc:type
           rdf:resource="http://purl.org/dc/dcmitype/StillImage" />
        <dc:title></dc:title>
      </cc:Work>
    </rdf:RDF>
  </metadata>
  <g
     inkscape:label="Layer 1"
     inkscape:groupmode="layer"
     id="layer1"
     transform="translate(0,-229.26665)">
    <rect
       style="fill:#ffff68;fill-opacity:1;stroke-width:0.26458332"
       id="rect3699"
       width="67.941216"
       height="67.752235"
       x="0.047250725"
       y="229.29501" />
    <rect
       y="229.95647"
       x="0.70870686"
       height="66.334824"
       width="66.519852"
       id="rect4506"
       style="fill:#000000;fill-opacity:1;stroke-width:0.2590481" />
    <rect
       y="241.40511"
       x="12.803946"
       height="42.223991"
       width="42.341766"
       id="rect4599"
       style="fill:#ffff68;fill-opacity:1;stroke-width:0.16489142" />
    <rect
       style="fill:#000000;fill-opacity:1;stroke-width:0.16010758"
       id="rect4601"
       width="41.113342"
       height="40.998989"
       x="13.465404"
       y="242.06314" />
    <rect
       y="246.38359"
       x="18.284599"
       height="31.575865"
       width="31.663937"
       id="rect4603"
       style="fill:#ffff68;fill-opacity:1;stroke-width:0.12330879" />
    <rect
       style="fill:#000000;fill-opacity:1;stroke-width:0.11558105"
       id="rect5148"
       width="29.679562"
       height="29.59701"
       x="19.135046"
       y="247.32301" />
    <path
       style="fill:#ffff68;fill-opacity:1;stroke-width:0.20607047"
       d="m 31.244378,234.04877 c 0,0 -0.113887,-0.47443 0.722032,-1.38751 1.298893,-0.66873 1.533745,-0.50385 1.533745,-0.50385 0,0 0.552868,-0.14778 1.504532,0.45665 0.540134,0.32151 0.802682,1.43471 0.802682,1.43471 v 5.59334 h -4.562991 z"
       id="rect5150"
       inkscape:connector-curvature="0"
       sodipodi:nodetypes="cccccccc" />
    <path
       sodipodi:nodetypes="cccccccc"
       inkscape:connector-curvature="0"
       id="path5153"
       d="m 38.614916,234.04877 c 0,0 -0.11389,-0.47443 0.722032,-1.38751 1.29889,-0.66873 1.533742,-0.50385 1.533742,-0.50385 0,0 0.552871,-0.14778 1.504532,0.45665 0.540134,0.32151 0.802682,1.43471 0.802682,1.43471 v 5.59334 h -4.562988 z"
       style="fill:#ffff68;fill-opacity:1;stroke-width:0.20607047" />
    <path
       style="fill:#ffff68;fill-opacity:1;stroke-width:0.20607047"
       d="m 46.363427,233.95427 c 0,0 -0.113888,-0.47443 0.722032,-1.38751 1.298892,-0.66873 1.533744,-0.50385 1.533744,-0.50385 0,0 0.552868,-0.14778 1.504532,0.45665 0.540134,0.32151 0.802683,1.43471 0.802683,1.43471 v 5.59334 h -4.562991 z"
       id="path5155"
       inkscape:connector-curvature="0"
       sodipodi:nodetypes="cccccccc" />
    <path
       sodipodi:nodetypes="cccccccc"
       inkscape:connector-curvature="0"
       id="path5157"
       d="m 23.779349,234.04877 c 0,0 -0.113888,-0.47443 0.722032,-1.38751 1.298891,-0.66873 1.533743,-0.50385 1.533743,-0.50385 0,0 0.552871,-0.14778 1.504532,0.45665 0.540134,0.32151 0.802682,1.43471 0.802682,1.43471 v 5.59334 h -4.562989 z"
       style="fill:#ffff68;fill-opacity:1;stroke-width:0.20607047" />
    <path
       style="fill:#ffff68;fill-opacity:1;stroke-width:0.20607047"
       d="m 16.408814,234.04877 c 0,0 -0.113888,-0.47443 0.722032,-1.38751 1.298891,-0.66873 1.533743,-0.50385 1.533743,-0.50385 0,0 0.55287,-0.14778 1.504533,0.45665 0.540133,0.32151 0.802682,1.43471 0.802682,1.43471 v 5.59334 h -4.56299 z"
       id="path5159"
       inkscape:connector-curvature="0"
       sodipodi:nodetypes="cccccccc" />
    <path
       sodipodi:nodetypes="cccccccc"
       inkscape:connector-curvature="0"
       id="path5161"
       d="m 36.447126,291.04913 c 0,0 0.109609,0.47545 -0.734507,1.38095 -1.304864,0.657 -1.538221,0.49001 -1.538221,0.49001 0,0 -0.554178,0.1428 -1.500357,-0.47019 -0.537213,-0.32636 -0.78972,-1.44188 -0.78972,-1.44188 l 0.05041,-5.59312 4.562806,0.0411 z"
       style="fill:#ffff68;fill-opacity:1;stroke-width:0.20607047" />
    <path
       style="fill:#ffff68;fill-opacity:1;stroke-width:0.20607047"
       d="m 29.07689,290.98271 c 0,0 0.109607,0.47544 -0.734507,1.38095 -1.304866,0.657 -1.538221,0.49001 -1.538221,0.49001 0,0 -0.55418,0.14279 -1.500357,-0.47019 -0.537213,-0.32637 -0.789719,-1.44189 -0.789719,-1.44189 l 0.05041,-5.59311 4.562803,0.0411 z"
       id="path5163"
       inkscape:connector-curvature="0"
       sodipodi:nodetypes="cccccccc" />
    <path
       sodipodi:nodetypes="cccccccc"
       inkscape:connector-curvature="0"
       id="path5165"
       d="m 21.327842,291.00738 c 0,0 0.109607,0.47544 -0.734507,1.38094 -1.304866,0.657 -1.538223,0.49002 -1.538223,0.49002 0,0 -0.554178,0.14279 -1.500356,-0.47019 -0.537213,-0.32637 -0.789719,-1.44189 -0.789719,-1.44189 l 0.05041,-5.59311 4.562804,0.0411 z"
       style="fill:#ffff68;fill-opacity:1;stroke-width:0.20607047" />
    <path
       style="fill:#ffff68;fill-opacity:1;stroke-width:0.20607047"
       d="m 43.911853,291.11641 c 0,0 0.109609,0.47544 -0.734507,1.38095 -1.304864,0.657 -1.538221,0.49001 -1.538221,0.49001 0,0 -0.554178,0.14279 -1.500357,-0.4702 -0.537213,-0.32636 -0.789718,-1.44188 -0.789718,-1.44188 l 0.05041,-5.59312 4.562806,0.0411 z"
       id="path5167"
       inkscape:connector-curvature="0"
       sodipodi:nodetypes="cccccccc" />
    <path
       sodipodi:nodetypes="cccccccc"
       inkscape:connector-curvature="0"
       id="path5169"
       d="m 51.282089,291.18284 c 0,0 0.109609,0.47544 -0.734507,1.38094 -1.304864,0.657 -1.538221,0.49001 -1.538221,0.49001 0,0 -0.554181,0.1428 -1.500357,-0.47019 -0.537213,-0.32636 -0.789721,-1.44188 -0.789721,-1.44188 l 0.05041,-5.59312 4.562806,0.0411 z"
       style="fill:#ffff68;fill-opacity:1;stroke-width:0.20607047" />
    <path
       style="fill:#ffff68;fill-opacity:1;stroke-width:0.20607047"
       d="m 63.088284,259.58786 c 0,0 0.474837,-0.11224 1.384988,0.72686 0.6642,1.30122 0.498502,1.53549 0.498502,1.53549 0,0 0.145859,0.55338 -0.461891,1.50293 -0.323387,0.53901 -1.437495,0.79768 -1.437495,0.79768 l -5.593313,-0.0195 0.0159,-4.56297 z"
       id="path5171"
       inkscape:connector-curvature="0"
       sodipodi:nodetypes="cccccccc" />
    <path
       sodipodi:nodetypes="cccccccc"
       inkscape:connector-curvature="0"
       id="path5173"
       d="m 63.062593,266.95835 c 0,0 0.474827,-0.11224 1.384988,0.72686 0.6642,1.30122 0.498502,1.53549 0.498502,1.53549 0,0 0.145851,0.55338 -0.461892,1.50293 -0.323397,0.53901 -1.437505,0.79768 -1.437505,0.79768 l -5.593302,-0.0195 0.01588,-4.56296 z"
       style="fill:#ffff68;fill-opacity:1;stroke-width:0.20607047" />
    <path
       style="fill:#ffff68;fill-opacity:1;stroke-width:0.20607047"
       d="m 63.130083,274.70714 c 0,0 0.474827,-0.11223 1.384977,0.72687 0.664202,1.30121 0.498512,1.53549 0.498512,1.53549 0,0 0.145852,0.55338 -0.461891,1.50293 -0.323395,0.53901 -1.437505,0.79767 -1.437505,0.79767 l -5.593302,-0.0195 0.0159,-4.56296 z"
       id="path5175"
       inkscape:connector-curvature="0"
       sodipodi:nodetypes="cccccccc" />
    <path
       sodipodi:nodetypes="cccccccc"
       inkscape:connector-curvature="0"
       id="path5177"
       d="m 63.114311,252.12287 c 0,0 0.474829,-0.11223 1.384988,0.72687 0.664202,1.30121 0.498504,1.53549 0.498504,1.53549 0,0 0.145849,0.55338 -0.461901,1.50293 -0.323387,0.53901 -1.437495,0.79767 -1.437495,0.79767 l -5.593313,-0.0195 0.0159,-4.56296 z"
       style="fill:#ffff68;fill-opacity:1;stroke-width:0.20607047" />
    <path
       style="fill:#ffff68;fill-opacity:1;stroke-width:0.20607047"
       d="m 63.140013,244.75238 c 0,0 0.474826,-0.11223 1.384977,0.72687 0.664202,1.30121 0.498504,1.53549 0.498504,1.53549 0,0 0.14586,0.55338 -0.461891,1.50293 -0.323387,0.53901 -1.437494,0.79767 -1.437494,0.79767 l -5.593313,-0.0195 0.01588,-4.56296 z"
       id="path5179"
       inkscape:connector-curvature="0"
       sodipodi:nodetypes="cccccccc" />
    <path
       sodipodi:nodetypes="cccccccc"
       inkscape:connector-curvature="0"
       id="path5181"
       d="m 4.8891899,264.70263 c 0,0 -0.4745895,0.11329 -1.3865806,-0.72381 -0.667054,-1.29976 -0.501872,-1.5344 -0.501872,-1.5344 0,0 -0.147074,-0.55305 0.458592,-1.50394 0.322204,-0.53971 1.4357401,-0.80083 1.4357401,-0.80083 l 5.5933426,0.007 -0.0059,4.563 z"
       style="fill:#ffff68;fill-opacity:1;stroke-width:0.20607047" />
    <path
       style="fill:#ffff68;fill-opacity:1;stroke-width:0.20607047"
       d="m 4.8987032,257.33211 c 0,0 -0.4745797,0.11328 -1.3865809,-0.72382 -0.667054,-1.29976 -0.501871,-1.53439 -0.501871,-1.53439 0,0 -0.147065,-0.55306 0.458591,-1.50394 0.322214,-0.53972 1.4357513,-0.80084 1.4357513,-0.80084 l 5.5933324,0.007 -0.0059,4.56299 z"
       id="path5183"
       inkscape:connector-curvature="0"
       sodipodi:nodetypes="cccccccc" />
    <path
       sodipodi:nodetypes="cccccccc"
       inkscape:connector-curvature="0"
       id="path5185"
       d="m 4.814204,249.58348 c 0,0 -0.4745797,0.11327 -1.3865697,-0.72383 -0.667055,-1.29974 -0.501882,-1.53439 -0.501882,-1.53439 0,0 -0.147064,-0.55306 0.458592,-1.50394 0.322213,-0.53972 1.4357504,-0.80082 1.4357504,-0.80082 l 5.5933323,0.007 -0.0059,4.56299 z"
       style="fill:#ffff68;fill-opacity:1;stroke-width:0.20607047" />
    <path
       style="fill:#ffff68;fill-opacity:1;stroke-width:0.20607047"
       d="m 4.8795463,272.16766 c 0,0 -0.4745797,0.11328 -1.386581,-0.72382 -0.667055,-1.29975 -0.501872,-1.5344 -0.501872,-1.5344 0,0 -0.147064,-0.55306 0.458602,-1.50394 0.322204,-0.53972 1.4357404,-0.80082 1.4357404,-0.80082 l 5.5933423,0.007 -0.0059,4.56299 z"
       id="path5187"
       inkscape:connector-curvature="0"
       sodipodi:nodetypes="cccccccc" />
    <path
       sodipodi:nodetypes="cccccccc"
       inkscape:connector-curvature="0"
       id="path5189"
       d="m 4.8700232,279.53819 c 0,0 -0.4745797,0.11327 -1.3865709,-0.72383 -0.667055,-1.29975 -0.501872,-1.53439 -0.501872,-1.53439 0,0 -0.147074,-0.55306 0.458592,-1.50394 0.322203,-0.53972 1.4357402,-0.80082 1.4357402,-0.80082 l 5.5933425,0.007 -0.0059,4.56299 z"
       style="fill:#ffff68;fill-opacity:1;stroke-width:0.20607047" />
    <path
       style="fill:#ffff68;fill-opacity:1;stroke-width:0.26458332"
       d="m 23.812499,252.58778 6.709077,6.61458 v 0 l -5.575148,-2.26785 z"
       id="rect5373"
       inkscape:connector-curvature="0"
       sodipodi:nodetypes="ccccc" />
    <path
       sodipodi:nodetypes="ccccc"
       inkscape:connector-curvature="0"
       id="path5376"
       d="m 42.99479,252.49328 -6.709077,6.61458 v 0 l 5.575148,-2.26785 z"
       style="fill:#ffff68;fill-opacity:1;stroke-width:0.26458332" />
    <path
       style="fill:#ffff68;fill-opacity:1;stroke-width:0.26458332"
       d="m 34.017856,266.95086 v 0 l 9.449406,3.40178 -0.538682,1.694 -8.910723,-2.73343 -8.907964,2.64652 -0.541442,-1.70158 z"
       id="rect5378"
       inkscape:connector-curvature="0"
       sodipodi:nodetypes="cccccccc" />
  </g>
</svg>
